<svg fill="none" height="1176" viewBox="0 0 1957 1176" width="1957" xmlns="http://www.w3.org/2000/svg"><path d="m0 0h1957v588h-1957z" fill="#fff"/><path d="m0 588h1957v588h-1957z" fill="#000"/><circle cx="213.5" cy="881.5" fill="#092e20" r="112.5"/><g fill="#fff"><path d="m174.349 865.193v-27.864h16.697v79.689c-8.565 1.627-14.854 2.277-21.684 2.277-20.383 0-31.008-9.215-31.008-26.888 0-17.022 11.275-28.081 28.731-28.081 2.711 0 4.771.217 7.264.867zm0 40.224v-26.78c-1.951-.65-3.578-.867-5.638-.867-8.565 0-13.444 5.204-13.444 14.312 0 8.89 4.662 13.769 13.336 13.769 1.843 0 3.361-.108 5.746-.434z"/><path d="m199.045 916.585v-13.769c5.964 2.927 10.626 4.228 16.155 4.228 4.445 0 6.831-1.193 6.831-3.361 0-1.409-.868-2.494-2.711-3.253l-6.722-3.144c-10.3-4.77-13.553-8.674-13.553-16.263 0-10.408 8.457-16.805 22.335-16.805 5.313 0 9.758.867 14.962 3.036v13.227c-4.987-2.385-8.999-3.47-13.769-3.47-4.662 0-7.264 1.301-7.264 3.578 0 .759.325 1.518.867 2.06.434.434 1.084.868 1.843 1.193 1.626.759 3.795 1.843 6.614 3.144 10.408 4.771 13.661 8.674 13.661 15.938 0 11.167-7.698 16.914-22.552 16.914-6.288 0-11.384-.976-16.697-3.253z"/><path d="m244.172 879.071v-12.468h8.566v-1.301c0-11.71 2.168-17.998 7.806-22.66 4.228-3.578 10.734-5.746 17.673-5.746 2.276 0 3.794.216 6.288.758v13.336c-1.626-.542-2.711-.65-4.12-.65-3.686 0-6.831 1.192-8.565 3.252-1.843 2.06-2.386 5.096-2.386 12.035v.976h12.903v12.468h-12.903v39.574h-16.696v-39.574z"/></g><circle cx="468.5" cy="881.5" fill="#ffdbdb" r="112.5"/><g fill="#111"><path d="m429.349 865.193v-27.864h16.697v79.689c-8.565 1.627-14.854 2.277-21.684 2.277-20.383 0-31.008-9.215-31.008-26.888 0-17.022 11.275-28.081 28.731-28.081 2.711 0 4.771.217 7.264.867zm0 40.224v-26.78c-1.951-.65-3.578-.867-5.638-.867-8.565 0-13.444 5.204-13.444 14.312 0 8.89 4.662 13.769 13.336 13.769 1.843 0 3.361-.108 5.746-.434z"/><path d="m454.045 916.585v-13.769c5.964 2.927 10.626 4.228 16.155 4.228 4.445 0 6.831-1.193 6.831-3.361 0-1.409-.868-2.494-2.711-3.253l-6.722-3.144c-10.3-4.77-13.553-8.674-13.553-16.263 0-10.408 8.457-16.805 22.335-16.805 5.313 0 9.758.867 14.962 3.036v13.227c-4.987-2.385-8.999-3.47-13.769-3.47-4.662 0-7.264 1.301-7.264 3.578 0 .759.325 1.518.867 2.06.434.434 1.084.868 1.843 1.193 1.626.759 3.795 1.843 6.614 3.144 10.408 4.771 13.661 8.674 13.661 15.938 0 11.167-7.698 16.914-22.552 16.914-6.288 0-11.384-.976-16.697-3.253z"/><path d="m499.172 879.071v-12.468h8.565v-1.301c0-11.71 2.169-17.998 7.807-22.66 4.228-3.578 10.733-5.746 17.672-5.746 2.277 0 3.795.216 6.289.758v13.336c-1.627-.542-2.711-.65-4.12-.65-3.686 0-6.831 1.192-8.565 3.252-1.844 2.06-2.386 5.096-2.386 12.035v.976h12.902v12.468h-12.902v39.574h-16.697v-39.574z"/></g><circle cx="723.5" cy="881.5" fill="#7dd0e9" r="112.5"/><path d="m684.349 865.193v-27.864h16.697v79.689c-8.565 1.627-14.854 2.277-21.684 2.277-20.383 0-31.008-9.215-31.008-26.888 0-17.022 11.275-28.081 28.731-28.081 2.711 0 4.771.217 7.264.867zm0 40.224v-26.78c-1.951-.65-3.578-.867-5.638-.867-8.565 0-13.444 5.204-13.444 14.312 0 8.89 4.662 13.769 13.336 13.769 1.843 0 3.361-.108 5.746-.434z" fill="#111"/><path d="m709.045 916.585v-13.769c5.964 2.927 10.626 4.228 16.155 4.228 4.445 0 6.831-1.193 6.831-3.361 0-1.409-.868-2.494-2.711-3.253l-6.722-3.144c-10.3-4.77-13.553-8.674-13.553-16.263 0-10.408 8.457-16.805 22.335-16.805 5.313 0 9.758.867 14.962 3.036v13.227c-4.987-2.385-8.999-3.47-13.769-3.47-4.662 0-7.264 1.301-7.264 3.578 0 .759.325 1.518.867 2.06.434.434 1.084.868 1.843 1.193 1.626.759 3.795 1.843 6.614 3.144 10.408 4.771 13.661 8.674 13.661 15.938 0 11.167-7.698 16.914-22.552 16.914-6.288 0-11.384-.976-16.697-3.253z" fill="#111"/><path d="m754.172 879.071v-12.468h8.566v-1.301c0-11.71 2.168-17.998 7.806-22.66 4.228-3.578 10.734-5.746 17.673-5.746 2.276 0 3.794.216 6.288.758v13.336c-1.626-.542-2.711-.65-4.12-.65-3.686 0-6.831 1.192-8.565 3.252-1.843 2.06-2.386 5.096-2.386 12.035v.976h12.903v12.468h-12.903v39.574h-16.696v-39.574z" fill="#111"/><circle cx="978.5" cy="881.5" fill="#fd5765" r="112.5"/><path d="m939.349 865.193v-27.864h16.697v79.689c-8.565 1.627-14.854 2.277-21.684 2.277-20.383 0-31.008-9.215-31.008-26.888 0-17.022 11.275-28.081 28.731-28.081 2.711 0 4.771.217 7.264.867zm0 40.224v-26.78c-1.951-.65-3.578-.867-5.638-.867-8.565 0-13.444 5.204-13.444 14.312 0 8.89 4.662 13.769 13.336 13.769 1.843 0 3.361-.108 5.746-.434z" fill="#111"/><path d="m964.045 916.585v-13.769c5.964 2.927 10.626 4.228 16.155 4.228 4.445 0 6.831-1.193 6.831-3.361 0-1.409-.868-2.494-2.711-3.253l-6.722-3.144c-10.3-4.77-13.553-8.674-13.553-16.263 0-10.408 8.457-16.805 22.335-16.805 5.313 0 9.758.867 14.96 3.036v13.227c-4.985-2.385-8.997-3.47-13.767-3.47-4.662 0-7.264 1.301-7.264 3.578 0 .759.325 1.518.867 2.06.434.434 1.084.868 1.843 1.193 1.626.759 3.795 1.843 6.614 3.144 10.407 4.771 13.657 8.674 13.657 15.938 0 11.167-7.694 16.914-22.548 16.914-6.288 0-11.384-.976-16.697-3.253z" fill="#111"/><path d="m1009.17 879.071v-12.468h8.57v-1.301c0-11.71 2.17-17.998 7.8-22.66 4.23-3.578 10.74-5.746 17.68-5.746 2.27 0 3.79.216 6.28.758v13.336c-1.62-.542-2.71-.65-4.12-.65-3.68 0-6.83 1.192-8.56 3.252-1.84 2.06-2.39 5.096-2.39 12.035v.976h12.91v12.468h-12.91v39.574h-16.69v-39.574z" fill="#111"/><circle cx="1233.5" cy="881.5" fill="#00b0b1" r="112.5"/><path d="m1194.35 865.193v-27.864h16.7v79.689c-8.57 1.627-14.86 2.277-21.69 2.277-20.38 0-31.01-9.215-31.01-26.888 0-17.022 11.28-28.081 28.74-28.081 2.71 0 4.77.217 7.26.867zm0 40.224v-26.78c-1.95-.65-3.58-.867-5.64-.867-8.56 0-13.44 5.204-13.44 14.312 0 8.89 4.66 13.769 13.33 13.769 1.85 0 3.36-.108 5.75-.434z" fill="#111"/><path d="m1219.05 916.585v-13.769c5.96 2.927 10.62 4.228 16.15 4.228 4.45 0 6.83-1.193 6.83-3.361 0-1.409-.87-2.494-2.71-3.253l-6.72-3.144c-10.3-4.77-13.55-8.674-13.55-16.263 0-10.408 8.45-16.805 22.33-16.805 5.31 0 9.76.867 14.96 3.036v13.227c-4.99-2.385-9-3.47-13.77-3.47-4.66 0-7.26 1.301-7.26 3.578 0 .759.32 1.518.87 2.06.43.434 1.08.868 1.84 1.193 1.63.759 3.79 1.843 6.61 3.144 10.41 4.771 13.66 8.674 13.66 15.938 0 11.167-7.69 16.914-22.55 16.914-6.29 0-11.38-.976-16.69-3.253z" fill="#111"/><path d="m1264.17 879.071v-12.468h8.57v-1.301c0-11.71 2.17-17.998 7.8-22.66 4.23-3.578 10.74-5.746 17.68-5.746 2.27 0 3.79.216 6.28.758v13.336c-1.62-.542-2.71-.65-4.12-.65-3.68 0-6.83 1.192-8.56 3.252-1.84 2.06-2.39 5.096-2.39 12.035v.976h12.91v12.468h-12.91v39.574h-16.69v-39.574z" fill="#111"/><circle cx="1488.5" cy="881.5" fill="#fff" r="112.5"/><path d="m1449.35 865.193v-27.864h16.7v79.689c-8.57 1.627-14.86 2.277-21.69 2.277-20.38 0-31.01-9.215-31.01-26.888 0-17.022 11.28-28.081 28.74-28.081 2.71 0 4.77.217 7.26.867zm0 40.224v-26.78c-1.95-.65-3.58-.867-5.64-.867-8.56 0-13.44 5.204-13.44 14.312 0 8.89 4.66 13.769 13.33 13.769 1.85 0 3.36-.108 5.75-.434z" fill="#111"/><path d="m1474.05 916.585v-13.769c5.96 2.927 10.62 4.228 16.15 4.228 4.45 0 6.83-1.193 6.83-3.361 0-1.409-.87-2.494-2.71-3.253l-6.72-3.144c-10.3-4.77-13.55-8.674-13.55-16.263 0-10.408 8.45-16.805 22.33-16.805 5.31 0 9.76.867 14.96 3.036v13.227c-4.99-2.385-9-3.47-13.77-3.47-4.66 0-7.26 1.301-7.26 3.578 0 .759.32 1.518.87 2.06.43.434 1.08.868 1.84 1.193 1.63.759 3.79 1.843 6.61 3.144 10.41 4.771 13.66 8.674 13.66 15.938 0 11.167-7.69 16.914-22.55 16.914-6.29 0-11.38-.976-16.69-3.253z" fill="#111"/><path d="m1519.17 879.071v-12.468h8.57v-1.301c0-11.71 2.17-17.998 7.8-22.66 4.23-3.578 10.74-5.746 17.68-5.746 2.27 0 3.79.216 6.28.758v13.336c-1.62-.542-2.71-.65-4.12-.65-3.68 0-6.83 1.192-8.56 3.252-1.84 2.06-2.39 5.096-2.39 12.035v.976h12.91v12.468h-12.91v39.574h-16.69v-39.574z" fill="#111"/><circle cx="1743.5" cy="881.5" fill="#092e20" r="112.5"/><path d="m1728.79 814h24.26v112.282c-12.45 2.363-21.58 3.308-31.51 3.308-29.61 0-45.05-13.387-45.05-39.065 0-24.729 16.39-40.796 41.75-40.796 3.93 0 6.93.316 10.55 1.259zm0 56.519c-2.84-.944-5.2-1.259-8.19-1.259-12.29 0-19.38 7.561-19.38 20.791 0 12.918 6.78 20.006 19.22 20.006 2.68 0 4.88-.158 8.35-.628z" fill="#fff"/><path d="m1791.64 851.46v56.235c0 19.373-1.42 28.666-5.67 36.701-3.94 7.719-9.14 12.599-19.85 17.956l-22.53-10.712c10.72-5.04 15.91-9.447 19.22-16.224 3.47-6.929 4.57-14.965 4.57-36.072v-47.884zm-24.26-37.331h24.26v24.889h-24.26z" fill="#fff"/><circle cx="208.5" cy="293.5" fill="#092e20" r="112.5"/><g fill="#fff"><path d="m169.349 277.193v-27.864h16.697v79.689c-8.565 1.627-14.854 2.277-21.684 2.277-20.383 0-31.008-9.215-31.008-26.888 0-17.022 11.275-28.081 28.731-28.081 2.711 0 4.771.217 7.264.867zm0 40.224v-26.78c-1.951-.65-3.578-.867-5.638-.867-8.565 0-13.444 5.204-13.444 14.312 0 8.89 4.662 13.769 13.336 13.769 1.843 0 3.361-.108 5.746-.434z"/><path d="m194.045 328.585v-13.769c5.964 2.927 10.626 4.228 16.155 4.228 4.445 0 6.831-1.193 6.831-3.361 0-1.409-.868-2.494-2.711-3.253l-6.722-3.144c-10.3-4.77-13.553-8.674-13.553-16.263 0-10.408 8.457-16.805 22.335-16.805 5.313 0 9.758.867 14.962 3.036v13.227c-4.987-2.385-8.999-3.47-13.769-3.47-4.662 0-7.264 1.301-7.264 3.578 0 .759.325 1.518.867 2.06.434.434 1.084.868 1.843 1.193 1.626.759 3.795 1.843 6.614 3.144 10.408 4.771 13.661 8.674 13.661 15.938 0 11.167-7.698 16.914-22.552 16.914-6.288 0-11.384-.976-16.697-3.253z"/><path d="m239.172 291.071v-12.468h8.566v-1.301c0-11.71 2.168-17.998 7.806-22.66 4.228-3.578 10.734-5.746 17.673-5.746 2.276 0 3.794.216 6.288.758v13.336c-1.626-.542-2.711-.65-4.12-.65-3.686 0-6.831 1.192-8.565 3.252-1.843 2.06-2.386 5.096-2.386 12.035v.976h12.903v12.468h-12.903v39.574h-16.696v-39.574z"/></g><circle cx="463.5" cy="293.5" fill="#ffdbdb" r="112.5"/><path d="m424.349 277.193v-27.864h16.697v79.689c-8.565 1.627-14.854 2.277-21.684 2.277-20.383 0-31.008-9.215-31.008-26.888 0-17.022 11.275-28.081 28.731-28.081 2.711 0 4.771.217 7.264.867zm0 40.224v-26.78c-1.951-.65-3.578-.867-5.638-.867-8.565 0-13.444 5.204-13.444 14.312 0 8.89 4.662 13.769 13.336 13.769 1.843 0 3.361-.108 5.746-.434z" fill="#111"/><path d="m449.045 328.585v-13.769c5.964 2.927 10.626 4.228 16.155 4.228 4.445 0 6.831-1.193 6.831-3.361 0-1.409-.868-2.494-2.711-3.253l-6.722-3.144c-10.3-4.77-13.553-8.674-13.553-16.263 0-10.408 8.457-16.805 22.335-16.805 5.313 0 9.758.867 14.962 3.036v13.227c-4.987-2.385-8.999-3.47-13.769-3.47-4.662 0-7.264 1.301-7.264 3.578 0 .759.325 1.518.867 2.06.434.434 1.084.868 1.843 1.193 1.626.759 3.795 1.843 6.614 3.144 10.408 4.771 13.661 8.674 13.661 15.938 0 11.167-7.698 16.914-22.552 16.914-6.288 0-11.384-.976-16.697-3.253z" fill="#111"/><path d="m494.172 291.071v-12.468h8.565v-1.301c0-11.71 2.169-17.998 7.807-22.66 4.228-3.578 10.733-5.746 17.672-5.746 2.277 0 3.795.216 6.289.758v13.336c-1.627-.542-2.711-.65-4.12-.65-3.686 0-6.831 1.192-8.565 3.252-1.844 2.06-2.386 5.096-2.386 12.035v.976h12.902v12.468h-12.902v39.574h-16.697v-39.574z" fill="#111"/><circle cx="718.5" cy="293.5" fill="#7dd0e9" r="112.5"/><path d="m679.349 277.193v-27.864h16.697v79.689c-8.565 1.627-14.854 2.277-21.684 2.277-20.383 0-31.008-9.215-31.008-26.888 0-17.022 11.275-28.081 28.731-28.081 2.711 0 4.771.217 7.264.867zm0 40.224v-26.78c-1.951-.65-3.578-.867-5.638-.867-8.565 0-13.444 5.204-13.444 14.312 0 8.89 4.662 13.769 13.336 13.769 1.843 0 3.361-.108 5.746-.434z" fill="#111"/><path d="m704.045 328.585v-13.769c5.964 2.927 10.626 4.228 16.155 4.228 4.445 0 6.831-1.193 6.831-3.361 0-1.409-.868-2.494-2.711-3.253l-6.722-3.144c-10.3-4.77-13.553-8.674-13.553-16.263 0-10.408 8.457-16.805 22.335-16.805 5.313 0 9.758.867 14.962 3.036v13.227c-4.987-2.385-8.999-3.47-13.769-3.47-4.662 0-7.264 1.301-7.264 3.578 0 .759.325 1.518.867 2.06.434.434 1.084.868 1.843 1.193 1.626.759 3.795 1.843 6.614 3.144 10.408 4.771 13.661 8.674 13.661 15.938 0 11.167-7.698 16.914-22.552 16.914-6.288 0-11.384-.976-16.697-3.253z" fill="#111"/><path d="m749.172 291.071v-12.468h8.566v-1.301c0-11.71 2.168-17.998 7.806-22.66 4.228-3.578 10.734-5.746 17.673-5.746 2.276 0 3.794.216 6.288.758v13.336c-1.626-.542-2.711-.65-4.12-.65-3.686 0-6.831 1.192-8.565 3.252-1.843 2.06-2.386 5.096-2.386 12.035v.976h12.903v12.468h-12.903v39.574h-16.696v-39.574z" fill="#111"/><circle cx="973.5" cy="293.5" fill="#fd5765" r="112.5"/><path d="m934.349 277.193v-27.864h16.697v79.689c-8.565 1.627-14.854 2.277-21.684 2.277-20.383 0-31.008-9.215-31.008-26.888 0-17.022 11.275-28.081 28.731-28.081 2.711 0 4.771.217 7.264.867zm0 40.224v-26.78c-1.951-.65-3.578-.867-5.638-.867-8.565 0-13.444 5.204-13.444 14.312 0 8.89 4.662 13.769 13.336 13.769 1.843 0 3.361-.108 5.746-.434z" fill="#111"/><path d="m959.045 328.585v-13.769c5.964 2.927 10.626 4.228 16.155 4.228 4.445 0 6.831-1.193 6.831-3.361 0-1.409-.868-2.494-2.711-3.253l-6.722-3.144c-10.3-4.77-13.553-8.674-13.553-16.263 0-10.408 8.457-16.805 22.335-16.805 5.313 0 9.758.867 14.962 3.036v13.227c-4.987-2.385-8.999-3.47-13.769-3.47-4.662 0-7.264 1.301-7.264 3.578 0 .759.325 1.518.867 2.06.434.434 1.084.868 1.843 1.193 1.626.759 3.795 1.843 6.614 3.144 10.408 4.771 13.661 8.674 13.661 15.938 0 11.167-7.698 16.914-22.552 16.914-6.288 0-11.384-.976-16.697-3.253z" fill="#111"/><path d="m1004.17 291.071v-12.468h8.57v-1.301c0-11.71 2.17-17.998 7.8-22.66 4.23-3.578 10.74-5.746 17.68-5.746 2.27 0 3.79.216 6.28.758v13.336c-1.62-.542-2.71-.65-4.12-.65-3.68 0-6.83 1.192-8.56 3.252-1.84 2.06-2.39 5.096-2.39 12.035v.976h12.91v12.468h-12.91v39.574h-16.69v-39.574z" fill="#111"/><circle cx="1228.5" cy="293.5" fill="#00b0b1" r="112.5"/><path d="m1189.35 277.193v-27.864h16.7v79.689c-8.57 1.627-14.86 2.277-21.69 2.277-20.38 0-31.01-9.215-31.01-26.888 0-17.022 11.28-28.081 28.74-28.081 2.71 0 4.77.217 7.26.867zm0 40.224v-26.78c-1.95-.65-3.58-.867-5.64-.867-8.56 0-13.44 5.204-13.44 14.312 0 8.89 4.66 13.769 13.33 13.769 1.85 0 3.36-.108 5.75-.434z" fill="#111"/><path d="m1214.05 328.585v-13.769c5.96 2.927 10.62 4.228 16.15 4.228 4.45 0 6.83-1.193 6.83-3.361 0-1.409-.87-2.494-2.71-3.253l-6.72-3.144c-10.3-4.77-13.55-8.674-13.55-16.263 0-10.408 8.45-16.805 22.33-16.805 5.31 0 9.76.867 14.96 3.036v13.227c-4.99-2.385-9-3.47-13.77-3.47-4.66 0-7.26 1.301-7.26 3.578 0 .759.32 1.518.87 2.06.43.434 1.08.868 1.84 1.193 1.63.759 3.79 1.843 6.61 3.144 10.41 4.771 13.66 8.674 13.66 15.938 0 11.167-7.69 16.914-22.55 16.914-6.29 0-11.38-.976-16.69-3.253z" fill="#111"/><path d="m1259.17 291.071v-12.468h8.57v-1.301c0-11.71 2.17-17.998 7.8-22.66 4.23-3.578 10.74-5.746 17.68-5.746 2.27 0 3.79.216 6.28.758v13.336c-1.62-.542-2.71-.65-4.12-.65-3.68 0-6.83 1.192-8.56 3.252-1.84 2.06-2.39 5.096-2.39 12.035v.976h12.91v12.468h-12.91v39.574h-16.69v-39.574z" fill="#111"/><circle cx="1483.5" cy="293.5" fill="#fff" r="112.5"/><path d="m1444.35 277.193v-27.864h16.7v79.689c-8.57 1.627-14.86 2.277-21.69 2.277-20.38 0-31.01-9.215-31.01-26.888 0-17.022 11.28-28.081 28.74-28.081 2.71 0 4.77.217 7.26.867zm0 40.224v-26.78c-1.95-.65-3.58-.867-5.64-.867-8.56 0-13.44 5.204-13.44 14.312 0 8.89 4.66 13.769 13.33 13.769 1.85 0 3.36-.108 5.75-.434z" fill="#111"/><path d="m1469.05 328.585v-13.769c5.96 2.927 10.62 4.228 16.15 4.228 4.45 0 6.83-1.193 6.83-3.361 0-1.409-.87-2.494-2.71-3.253l-6.72-3.144c-10.3-4.77-13.55-8.674-13.55-16.263 0-10.408 8.45-16.805 22.33-16.805 5.31 0 9.76.867 14.96 3.036v13.227c-4.99-2.385-9-3.47-13.77-3.47-4.66 0-7.26 1.301-7.26 3.578 0 .759.32 1.518.87 2.06.43.434 1.08.868 1.84 1.193 1.63.759 3.79 1.843 6.61 3.144 10.41 4.771 13.66 8.674 13.66 15.938 0 11.167-7.69 16.914-22.55 16.914-6.29 0-11.38-.976-16.69-3.253z" fill="#111"/><path d="m1514.17 291.071v-12.468h8.57v-1.301c0-11.71 2.17-17.998 7.8-22.66 4.23-3.578 10.74-5.746 17.68-5.746 2.27 0 3.79.216 6.28.758v13.336c-1.62-.542-2.71-.65-4.12-.65-3.68 0-6.83 1.192-8.56 3.252-1.84 2.06-2.39 5.096-2.39 12.035v.976h12.91v12.468h-12.91v39.574h-16.69v-39.574z" fill="#111"/><circle cx="1738.5" cy="293.5" fill="#092e20" r="112.5"/><path d="m1723.79 226h24.26v112.282c-12.45 2.363-21.58 3.308-31.51 3.308-29.61 0-45.05-13.387-45.05-39.065 0-24.729 16.39-40.796 41.75-40.796 3.93 0 6.93.316 10.55 1.259zm0 56.519c-2.84-.944-5.2-1.259-8.19-1.259-12.29 0-19.38 7.561-19.38 20.791 0 12.918 6.78 20.006 19.22 20.006 2.68 0 4.88-.158 8.35-.628z" fill="#fff"/><path d="m1786.64 263.46v56.235c0 19.373-1.42 28.666-5.67 36.701-3.94 7.719-9.14 12.599-19.85 17.956l-22.53-10.712c10.72-5.04 15.91-9.447 19.22-16.224 3.47-6.929 4.57-14.965 4.57-36.072v-47.884zm-24.26-37.331h24.26v24.889h-24.26z" fill="#fff"/></svg>