<svg fill="none" height="1024" viewBox="0 0 1024 1024" width="1024" xmlns="http://www.w3.org/2000/svg"><rect x="0" y="0" width="1024" height="1024" fill="#092e20"/><g fill="#fff"><path d="m445.05 204.8h110.4v511.008c-56.633 10.752-98.214 15.053-143.374 15.053-134.772 0-205.025-60.925-205.025-177.786 0-112.546 74.559-185.667 189.972-185.667 17.92 0 31.54 1.438 48.032 5.73zm0 257.224c-12.903-4.296-23.655-5.73-37.275-5.73-55.917 0-88.178 34.413-88.178 94.621 0 58.794 30.828 91.051 87.461 91.051 12.182 0 22.222-.717 37.992-2.858z"/><path d="m731.077 375.283v255.934c0 88.17-6.452 130.462-25.806 167.03-17.925 35.128-41.585 57.341-90.329 81.717l-102.515-48.748c48.749-22.939 72.404-42.996 87.457-73.838 15.775-31.535 20.797-68.107 20.797-164.166v-217.929zm-110.396-169.896h110.396v113.272h-110.396z"/></g></svg>
