<svg fill="none" height="504" viewBox="0 0 504 504" width="504" xmlns="http://www.w3.org/2000/svg"><path d="m0 0h504v504h-504z" fill="#092e20"/><g fill="#fff"><path d="m85.448 176.039h23.868v110.476c-12.2441 2.325-21.2335 3.255-30.9968 3.255-29.1368 0-44.3251-13.172-44.3251-38.437 0-24.331 16.1192-40.139 41.0707-40.139 3.8743 0 6.8188.31 10.3842 1.238zm0 55.61c-2.7895-.929-5.1141-1.239-8.0586-1.239-12.0888 0-19.0636 7.44-19.0636 20.456 0 12.711 6.6648 19.685 18.9086 19.685 2.6336 0 4.8042-.155 8.2136-.618z"/><path d="m147.285 212.896v55.331c0 19.062-1.395 28.205-5.579 36.111-3.875 7.595-8.99 12.397-19.528 17.667l-22.163-10.539c10.539-4.96 15.653-9.296 18.907-15.964 3.411-6.817 4.496-14.724 4.496-35.491v-47.115zm-23.867-36.73h23.867v24.488h-23.867z"/><path d="m161.701 218.321c10.54-4.96 20.614-7.128 31.618-7.128 12.243 0 20.302 3.254 23.867 9.609 2.014 3.563 2.634 8.212 2.634 18.134v48.508c-10.695 1.552-24.178 2.635-34.096 2.635-19.992 0-28.983-6.975-28.983-22.472 0-16.741 11.934-24.488 41.227-26.97v-5.27c0-4.338-2.17-5.887-8.215-5.887-8.833 0-18.752 2.479-28.053 7.284v-18.443zm37.352 37.972c-15.81 1.551-20.924 4.03-20.924 10.229 0 4.649 2.946 6.819 9.455 6.819 3.565 0 6.818-.31 11.469-1.083z"/><path d="m231.445 216.618c14.103-3.722 25.727-5.425 37.506-5.425 12.243 0 21.078 2.787 26.349 8.214 4.959 5.112 6.508 10.691 6.508 22.628v46.805h-23.867v-45.876c0-9.143-3.099-12.555-11.623-12.555-3.254 0-6.199.311-11.005 1.706v56.724h-23.867z"/><path d="m311.085 301.858c8.371 4.339 16.739 6.353 25.573 6.353 15.652 0 22.317-6.353 22.317-21.542 0-.154 0-.31 0-.467-4.649 2.326-9.3 3.257-15.497 3.257-20.924 0-34.254-13.795-34.254-35.646 0-27.123 19.684-42.465 54.554-42.465 10.23 0 19.684 1.083 31.153 3.406l-8.172 17.219c-6.355-1.241-.509-.167-5.311-.632v2.48l.309 10.072.154 13.019c.155 3.253.155 6.509.311 9.763v6.51c0 20.459-1.705 30.068-6.819 37.971-7.44 11.625-20.304 17.359-38.591 17.359-9.3 0-17.357-1.396-25.728-4.651zm47.426-71.293c-.31 0-.619 0-.774 0h-1.706c-4.648-.155-10.072 1.084-13.793 3.408-5.733 3.257-8.68 9.145-8.68 17.515 0 11.935 5.891 18.753 16.429 18.753 3.255 0 5.89-.62 8.989-1.55v-1.704-6.509c0-2.79-.154-5.891-.154-9.145l-.154-11.004-.156-7.903v-1.861z"/><path d="m431.984 210.884c23.867 0 38.436 15.034 38.436 39.364 0 24.952-15.187 40.605-39.366 40.605-23.869 0-38.592-15.033-38.592-39.209.001-25.109 15.19-40.76 39.522-40.76zm-.467 60.752c9.145 0 14.57-7.595 14.57-20.77 0-13.016-5.27-20.767-14.412-20.767-9.455 0-14.881 7.597-14.881 20.767.001 13.176 5.426 20.77 14.723 20.77z"/></g></svg>