<svg xmlns="http://www.w3.org/2000/svg" width="512" height="512" fill="none"><path fill="#E57C00" d="M455.98 120.793c6.515-4.155 7.55-8.118 7.55-10.28 0-8.838-18.693-16.15-43.048-17.422-9.316-22.319-62.349-28.953-62.958-29.038-1.218-.148-2.618.022-3.288.403-.67.382-.548.89.426 1.208 5.237 1.823 7.429 3.497 6.698 5.13-1.705 3.963-20.458 7.418-35.497 10.173-3.532.657-6.942 1.272-9.986 1.886-6.515 1.293-13.456 2.459-20.215 3.582-23.259 3.9-47.127 7.906-54.373 17.592-2.253 1.993-3.531 4.176-3.531 6.444 0 1.844.913 5.722 7.184 9.898C221.744 123.124 205 130.797 205 139.826c0 6.04 6.454 20.856 66.124 28.126C298.706 171.301 328.724 172 349 172c106.188 0 144-16.617 144-32.174.061-8.605-15.283-16.002-37.02-19.033Z"/><path fill="#96A9B2" d="M465.625 390.73C468 386.697 324.99 257.327 324.99 257.327c-17.983-15.829-29.211-16.078-53.942 0 0 0-199.389 129.266-198.82 133.244l-.04.029c.01.035.034.058.05.09.588 3.992 1.91 7.668 3.859 10.884.832 1.373 1.944 2.523 2.995 3.719l-.076.049c.084.093.215.136.298.229 4.477 4.962 10.788 8.176 18.38 9.093.118.015.203.078.322.093h.47c1.16.113 2.223.398 3.438.398H425.38c15.927 0 31.615-10.016 40.049-24.057.087-.105.202-.18.284-.287l-.088-.081Z"/><path fill="#B9C5C6" d="M301.506 242.48 73.34 389.467l45.592-208.232c4.444-20.296 24.496-36.747 44.792-36.747h318.472c20.296 0 33.145 16.45 28.701 36.747l-45.592 208.232L301.506 242.48Z"/><path fill="#EDECE6" d="m124.016 168.458 138.552 131.427c17.707 15.585 28.761 15.831 53.112 0l195.795-131.219c-1.748-5.254-5.179-9.405-9.416-12.715l2.693-1.801c-4.491-5.105-10.935-8.416-18.706-9.27l-326.329.011c-8.12.843-16.028 4.165-22.74 9.259l1.892 1.778c-5.621 3.266-10.813 7.345-14.853 12.53Z"/><path fill="#DCE2E2" d="M123.899 168.734c-2.339 3.971 138.467 131.347 138.467 131.347 17.707 15.585 28.761 15.831 53.112 0 0 0 196.315-127.274 195.755-131.19l.041-.029c-.01-.034-.033-.057-.049-.089-.58-3.931-1.88-7.549-3.799-10.717-.819-1.352-1.914-2.484-2.949-3.662l.074-.049c-.083-.091-.211-.134-.294-.226-4.407-4.885-10.621-8.05-18.095-8.953-.117-.014-.2-.077-.317-.091h-.463c-1.142-.111-2.19-.392-3.385-.392H163.524c-15.682 0-31.128 9.862-39.431 23.686-.085.103-.199.177-.279.283l.085.082Z"/><path fill="#59CAFC" d="M94.446 208.62H14.44c-6.627 0-12-5.373-12-12s5.373-12 12-12h80.007c6.627 0 12 5.373 12 12s-5.372 12-12 12Zm-13.108 70.236c0-6.627-5.373-12-12-12H14.44c-6.628 0-12 5.373-12 12s5.372 12 12 12h54.898c6.628 0 12-5.373 12-12Zm-18.214 82.237c0-6.627-5.373-12-12-12H14.44c-6.628 0-12 5.373-12 12s5.372 12 12 12h36.683c6.628 0 12-5.373 12-12Z"/><path fill="#2B3B47" d="M229.479 198.521c9.695 0 17.555 7.859 17.555 17.555v26.883c0 9.696-7.86 17.555-17.555 17.555-9.696 0-17.555-7.859-17.555-17.555v-26.883c0-9.696 7.859-17.555 17.555-17.555ZM350.307 198.521c9.696 0 17.555 7.859 17.555 17.555v26.883c0 9.696-7.859 17.555-17.555 17.555s-17.555-7.859-17.555-17.555v-26.883c0-9.696 7.859-17.555 17.555-17.555ZM372.637 301.206a13.301 13.301 0 0 0-11.532-6.684H217.506a13.301 13.301 0 0 0-11.532 6.684 13.237 13.237 0 0 0 .074 13.295c9.035 15.425 21.962 27.544 37.167 35.624 12.339-10.063 28.352-9.696 46.054-9.696s33.714-.367 46.054 9.696c15.205-8.08 28.132-20.199 37.167-35.624 2.424-4.04 2.497-9.182.147-13.295Z"/><path fill="#FF473E" d="M243.215 350.199c13.809 7.345 29.527 11.311 46.054 11.311s32.246-4.04 46.054-11.311c-12.339-10.063-28.352-9.696-46.054-9.696-17.628-.073-33.641-.367-46.054 9.696Z"/><path fill="#F4934F" d="M428.98 115.793c6.515-4.155 7.55-8.118 7.55-10.28 0-8.838-18.693-16.15-43.048-17.422-9.316-22.319-62.349-28.953-62.958-29.038-1.218-.148-2.618.022-3.288.403-.67.382-.548.89.426 1.208 5.237 1.823 7.429 3.497 6.698 5.13-1.705 3.963-20.458 7.418-35.497 10.173-3.532.657-6.942 1.272-9.986 1.886-6.515 1.293-13.456 2.459-20.215 3.582-23.259 3.9-47.127 7.906-54.373 17.592-2.253 1.993-3.531 4.176-3.531 6.444 0 1.844.913 5.722 7.184 9.898C194.744 118.124 178 125.797 178 134.826c0 6.04 6.454 20.856 66.124 28.126C271.706 166.301 301.724 167 322 167c106.188 0 144-16.617 144-32.174.061-8.605-15.283-16.002-37.02-19.033Z"/><path fill="#F4934F" d="M428.98 115.793c6.515-4.155 7.55-8.118 7.55-10.28 0-8.838-18.693-16.15-43.048-17.422-9.316-22.319-62.349-28.953-62.958-29.038-1.218-.148-2.618.022-3.288.403-.67.382-.548.89.426 1.208 5.237 1.823 7.429 3.497 6.698 5.13-1.705 3.963-20.458 7.418-35.497 10.173-3.532.657-6.942 1.272-9.986 1.886-6.515 1.293-13.456 2.459-20.215 3.582-23.259 3.9-47.127 7.906-54.373 17.592-2.253 1.993-3.531 4.176-3.531 6.444 0 1.844.913 5.722 7.184 9.898C194.744 118.124 178 125.797 178 134.826c0 6.04 6.454 20.856 66.124 28.126C271.706 166.301 301.724 167 322 167c106.188 0 144-16.617 144-32.174.061-8.605-15.283-16.002-37.02-19.033Z"/></svg>
