<svg fill="none" height="1024" viewBox="0 0 1024 1024" width="1024" xmlns="http://www.w3.org/2000/svg" xmlns:xlink="http://www.w3.org/1999/xlink"><clipPath id="a"><rect height="1024" rx="128" width="1024"/></clipPath><g clip-path="url(#a)"><path d="m999.238 0h-973.2422c-13.7477 0-24.9958 11.2481-24.9958 24.9958v973.2402c0 13.744 11.2481 24.994 24.9958 24.994h573.6612 399.579c13.744 0 24.994-11.25 24.994-24.994v-425.845-547.3952c0-13.7477-11.24-24.9958-24.992-24.9958z" fill="#98d4fa"/><path d="m429.057 997.748c0 8.542.223 17.032.579 25.482h85.305c-.417-8.44-.636-16.94-.636-25.482 0-281.625 228.303-509.929 509.925-509.929v-85.248c-328.703 0-595.173 266.47-595.173 595.177z" fill="#0096d1"/><path d="m329.557 997.748c0 8.532.208 17.022.515 25.482h99.564c-.356-8.45-.579-16.94-.579-25.482 0-328.707 266.47-595.176 595.173-595.176v-99.5c-383.657 0-694.673 311.016-694.673 694.676z" fill="#21c14b"/><path d="m234.83 997.749c0 8.531.152 17.021.418 25.481h94.824c-.306-8.46-.515-16.95-.515-25.481 0-383.659 311.017-694.677 694.673-694.677v-94.728c-435.972 0-789.4 353.428-789.4 789.405z" fill="#ffd469"/><path d="m127.183 997.749c0 8.521.131 17.021.366 25.481h107.699c-.269-8.46-.419-16.95-.419-25.481 0-435.977 353.428-789.405 789.401-789.405v-107.646c-495.425 0-897.047 401.624-897.047 897.051z" fill="#ff7b39"/><path d="m999.238 0h-184.787c-462.343 96.7212-809.59309 506.675-809.59309 997.749 0 4.641.03541 9.271.0979 13.901 4.45342 6.94 12.22289 11.58 21.04229 11.58h101.5519c-.236-8.46-.367-16.96-.367-25.479 0-495.427 401.624-897.051 897.047-897.051v-75.7042c0-13.7477-11.24-24.9958-24.992-24.9958z" fill="#ff473e"/></g><g fill="#fff"><path d="m445.05 214.8c0-5.523 4.477-10 10-10h90.4c5.523 0 10 4.477 10 10v492.728c0 4.803-3.425 8.934-8.15 9.801-52.532 9.639-92.258 13.532-135.224 13.532-134.772 0-205.025-60.926-205.025-177.786 0-112.546 74.559-185.667 189.972-185.667 13.179 0 24.032.778 35.412 2.896 6.435 1.198 12.62-3.556 12.619-10.102zm0 254.434c0-4.305-2.744-8.175-6.903-9.291-10.034-2.692-19.246-3.649-30.372-3.649-55.917 0-88.178 34.412-88.178 94.621 0 58.793 30.828 91.05 87.461 91.05 9.796 0 18.206-.463 29.325-1.758 4.97-.579 8.667-4.831 8.667-9.834z"/><path d="m721.077 375.283c5.523 0 10 4.477 10 10v245.934c0 88.17-6.452 130.462-25.806 167.03-17.383 34.067-40.16 55.986-85.976 79.512-2.739 1.406-5.978 1.433-8.758.111l-79.019-37.576c-7.624-3.625-7.615-14.552-.162-18.519 36.234-19.286 55.569-37.844 68.528-64.397 15.775-31.535 20.797-68.107 20.797-164.166v-207.929c0-5.523 4.477-10 10-10zm-100.396-159.896c0-5.523 4.477-10 10-10h90.396c5.523 0 10 4.477 10 10v93.272c0 5.523-4.477 10-10 10h-90.396c-5.523 0-10-4.477-10-10z"/></g></svg>