<svg fill="none" xmlns="http://www.w3.org/2000/svg" viewBox="0 0 1024 1024">
  <g clip-path="url(#a)">
    <path d="M999.238 0H25.996C12.248 0 1 11.248 1 24.996v973.24c0 13.744 11.248 24.994 24.996 24.994h973.24c13.744 0 24.994-11.25 24.994-24.994V24.996C1024.23 11.248 1012.99 0 999.238 0Z" fill="#98D4FA"/>
    <path d="M429.057 997.748c0 8.542.223 17.032.579 25.482h85.305c-.417-8.44-.636-16.94-.636-25.482 0-281.625 228.303-509.929 509.925-509.929v-85.248c-328.703 0-595.173 266.47-595.173 595.177Z" fill="#0096D1"/>
    <path d="M329.557 997.748c0 8.532.208 17.022.515 25.482h99.564c-.356-8.45-.579-16.94-.579-25.482 0-328.707 266.47-595.176 595.173-595.176v-99.5c-383.657 0-694.673 311.016-694.673 694.676Z" fill="#21C14B"/>
    <path d="M234.83 997.749c0 8.531.152 17.021.418 25.481h94.824c-.306-8.46-.515-16.95-.515-25.481 0-383.659 311.017-694.677 694.673-694.677v-94.728c-435.972 0-789.4 353.428-789.4 789.405Z" fill="#FFD469"/>
    <path d="M127.183 997.749c0 8.521.131 17.021.366 25.481h107.699c-.269-8.46-.419-16.95-.419-25.481 0-435.977 353.428-789.405 789.401-789.405V100.698c-495.425 0-897.047 401.624-897.047 897.051Z" fill="#FF7B39"/>
    <path d="M999.238 0H814.451C352.108 96.721 4.858 506.675 4.858 997.749c0 4.641.035 9.271.098 13.901 4.453 6.94 12.223 11.58 21.042 11.58H127.55c-.236-8.46-.367-16.96-.367-25.479 0-495.427 401.624-897.051 897.047-897.051V24.996C1024.23 11.248 1012.99 0 999.238 0Z" fill="#FF473E"/>
  </g>
  <path d="M445.05 204.8h110.4v511.008c-56.633 10.752-98.214 15.053-143.374 15.053-134.772 0-205.025-60.926-205.025-177.786 0-112.546 74.559-185.667 189.972-185.667 17.92 0 31.54 1.438 48.032 5.73L445.05 204.8Zm0 257.224c-12.903-4.296-23.655-5.73-37.275-5.73-55.917 0-88.178 34.412-88.178 94.621 0 58.793 30.828 91.05 87.461 91.05 12.182 0 22.222-.716 37.992-2.858V462.024Z" fill="#fff"/>
  <path d="M731.077 375.283v255.934c0 88.17-6.452 130.462-25.806 167.03-17.925 35.129-41.585 57.341-90.329 81.717l-102.515-48.748c48.749-22.939 72.404-42.996 87.457-73.838 15.775-31.535 20.797-68.107 20.797-164.166V375.283h110.396ZM620.681 205.387h110.396v113.272H620.681V205.387Z" fill="#fff"/>
  <defs>
    <clipPath id="a">
      <path fill="#fff" d="M0 0h1024v1024H0z"/>
    </clipPath>
  </defs>
</svg>
