<svg fill="none" height="560" viewBox="0 0 1307 560" width="1307" xmlns="http://www.w3.org/2000/svg" xmlns:xlink="http://www.w3.org/1999/xlink"><mask id="a" height="561" maskUnits="userSpaceOnUse" width="1307" x="0" y="-1"><path d="m1307 487.4c0 40.092-32.5 72.594-72.6 72.594h-1161.8018c-40.095 0-72.5982-32.502-72.5982-72.594v-414.8113c0-40.0929 32.5032-72.59455938 72.5982-72.59455938h1161.8018c40.1 0 72.6 32.50165938 72.6 72.59455938z" fill="#092e20"/></mask><g mask="url(#a)"><path d="m1400.79-1110.07h-2355.171c-33.269 0-60.489 27.22-60.489 60.48v2355.06c0 33.27 27.22 60.48 60.489 60.48h1388.218 966.953c33.27 0 60.48-27.21 60.48-60.48v-1030.464-1324.596c.01-33.26-27.21-60.48-60.48-60.48z" fill="#98d4fa"/><path d="m387.635 1319.99c0 15.4.402 30.72 1.045 45.96h153.882c-.752-15.23-1.146-30.55-1.146-45.96 0-508.009 411.839-919.828 919.864-919.828v-153.773c-592.956 0-1073.645 480.665-1073.645 1073.601z" fill="#0096d1"/><path d="m208.146 1319.99c0 15.39.375 30.7.928 45.96h179.606c-.643-15.25-1.045-30.56-1.045-45.96 0-592.935 480.689-1073.601 1073.645-1073.601v-179.4803c-692.087 0-1253.134 561.0203-1253.134 1253.0813z" fill="#21c14b"/><path d="m37.2599 1319.99c0 15.38.2743 30.7.7553 45.96h171.0538c-.552-15.26-.928-30.57-.928-45.96 0-692.057 561.047-1253.0802 1253.139-1253.0802v-170.8728c-786.466 0-1424.0201 637.523-1424.0201 1423.953z" fill="#ffd469"/><path d="m-156.926 1319.99c0 15.37.237 30.69.662 45.96h194.2787c-.4847-15.26-.7552-30.58-.7552-45.96 0-786.431 637.5545-1423.954 1424.0205-1423.954v-194.176c-893.714 0-1618.206 724.461-1618.206 1618.13z" fill="#ff7b39"/><path d="m1416.19-479.78h-333.34c-834.025 174.468-1460.435 913.954-1460.435 1799.77 0 8.37.064 16.72.177 25.07 8.034 12.53 22.049 20.9 37.959 20.9h183.19c-.424-15.28-.661-30.59-.661-45.97 0-893.665 724.496-1618.125 1618.2-1618.125v-136.557c0-24.799-20.29-45.088-45.09-45.088z" fill="#ff473e"/></g><g fill="#fff"><path d="m221.051 82.2993h61.895v286.4787c-31.751 6.028-55.063 8.439-80.382 8.439-75.559 0-114.9458-34.155-114.9458-99.669 0-63.095 41.8008-104.088 106.5068-104.088 10.047 0 17.683.806 26.929 3.212zm0 144.2037c-7.234-2.408-13.262-3.212-20.898-3.212-31.349 0-49.437 19.292-49.437 53.046 0 32.96 17.284 51.044 49.035 51.044 6.83 0 12.459-.402 21.3-1.602z"/><path d="m381.41 177.875v143.481c0 49.429-3.617 73.139-14.468 93.639-10.05 19.694-23.314 32.146-50.642 45.812l-57.475-27.329c27.331-12.859 40.593-24.104 49.033-41.394 8.844-17.68 11.659-38.183 11.659-92.035v-122.174zm-61.893-95.2466h61.893v63.5026h-61.893z"/><path d="m418.795 191.943c27.334-12.862 53.456-18.485 81.992-18.485 31.752 0 52.649 8.439 61.895 24.918 5.222 9.24 6.83 21.296 6.83 47.023v125.788c-27.735 4.024-62.699 6.834-88.42 6.834-51.845 0-75.159-18.089-75.159-58.272 0-43.412 30.947-63.503 106.911-69.938v-13.665c0-11.25-5.627-15.266-21.303-15.266-22.907 0-48.63 6.427-72.748 18.887v-47.824zm96.862 98.464c-40.997 4.024-54.259 10.451-54.259 26.526 0 12.056 7.638 17.685 24.517 17.685 9.246 0 17.683-.807 29.742-2.811z"/><path d="m599.658 187.525c36.571-9.65 66.715-14.067 97.261-14.067 31.751 0 54.661 7.228 68.33 21.301 12.861 13.256 16.877 27.723 16.877 58.677v121.37h-61.893v-118.961c0-23.71-8.037-32.556-30.141-32.556-8.44 0-16.075.806-28.539 4.423v147.092h-61.892z"/><path d="m806.187 408.566c21.707 11.249 43.408 16.473 66.316 16.473 40.59 0 57.873-16.473 57.873-55.861 0-.4 0-.804 0-1.211-12.056 6.031-24.115 8.444-40.188 8.444-54.259 0-88.829-35.771-88.829-92.433 0-70.334 51.047-110.119 141.473-110.119 26.53 0 51.047 2.811 80.788 8.834l-21.19 44.65c-16.482-3.217-1.32-.433-13.775-1.638v6.43l.801 26.118.399 33.762c.402 8.434.402 16.878.806 25.315v16.883c0 53.051-4.42 77.969-17.682 98.462-19.293 30.145-52.652 45.014-100.077 45.014-24.116 0-45.011-3.62-66.718-12.059zm122.986-184.873c-.803 0-1.605 0-2.007 0h-4.423c-12.054-.402-26.12 2.81-35.77 8.838-14.867 8.445-22.508 23.713-22.508 45.419 0 30.948 15.277 48.628 42.605 48.628 8.439 0 15.274-1.608 23.309-4.019v-4.42-16.879c0-7.233-.399-15.276-.399-23.712l-.4-28.535-.404-20.495v-4.825z"/><path d="m1119.71 172.656c61.89 0 99.67 38.986 99.67 102.076 0 64.705-39.38 105.296-102.08 105.296-61.9 0-100.08-38.983-100.08-101.674 0-65.112 39.39-105.698 102.49-105.698zm-1.21 157.538c23.71 0 37.78-19.694 37.78-53.857 0-33.754-13.67-53.852-37.37-53.852-24.52 0-38.6 19.699-38.6 53.852.01 34.166 14.08 53.857 38.19 53.857z"/></g></svg>