<svg fill="none" height="1024" viewBox="0 0 1024 1024" width="1024" xmlns="http://www.w3.org/2000/svg"><circle cx="512" cy="512" fill="#00b0b1" r="512"/><g fill="#111"><path d="m333.821 437.787v-126.813h75.989v362.675c-38.982 7.401-67.601 10.362-98.687 10.362-92.766 0-141.123-41.942-141.123-122.372 0-77.469 51.317-127.8 130.76-127.8 12.336 0 21.712.987 33.061 3.948zm0 183.064v-121.878c-8.882-2.961-16.284-3.948-25.659-3.948-38.981 0-61.186 23.685-61.186 65.134 0 40.461 21.218 62.666 60.692 62.666 8.389 0 15.297-.494 26.153-1.974z"/><path d="m446.216 671.674v-62.666c27.139 13.323 48.356 19.244 73.522 19.244 20.23 0 31.086-5.428 31.086-15.297 0-6.414-3.947-11.349-12.336-14.803l-30.593-14.309c-46.876-21.712-61.679-39.475-61.679-74.016 0-47.37 38.488-76.482 101.647-76.482 24.179 0 44.41 3.947 68.095 13.816v60.199c-22.699-10.856-40.956-15.79-62.667-15.79-21.217 0-33.06 5.921-33.06 16.283 0 3.455 1.48 6.909 3.948 9.376 1.973 1.974 4.934 3.947 8.388 5.428 7.401 3.454 17.27 8.388 30.099 14.309 47.37 21.711 62.173 39.475 62.173 72.535 0 50.824-35.034 76.976-102.634 76.976-28.619 0-51.811-4.441-75.989-14.803z"/><path d="m651.593 500.946v-56.745h38.981v-5.921c0-53.291 9.869-81.91 35.528-103.128 19.244-16.283 48.85-26.152 80.43-26.152 10.362 0 17.27.987 28.619 3.454v60.693c-7.402-2.468-12.336-2.961-18.751-2.961-16.776 0-31.086 5.428-38.981 14.803-8.388 9.375-10.856 23.192-10.856 54.771v4.441h58.719v56.745h-58.719v180.104h-75.989v-180.104z"/></g></svg>