<svg fill="none" height="1472" viewBox="0 0 1710 1472" width="1710" xmlns="http://www.w3.org/2000/svg" xmlns:xlink="http://www.w3.org/1999/xlink"><clipPath id="a"><path d="m20 20h1670v1432h-1670z"/></clipPath><rect height="1471" rx="4.5" stroke="#9747ff" stroke-dasharray="10 5" width="1709" x=".5" y=".5"/><g clip-path="url(#a)"><path d="m497.143 20h-238.572v238.667h238.572z" fill="#ad1d45"/><path d="m735.714 20h-238.571v238.667h238.571z" fill="#d9195c"/><path d="m1212.86 20h-238.574v238.667h238.574z" fill="#d9195c"/><path d="m1451.43 20h-238.57v238.667h238.57z" fill="#d62d75"/><path d="m258.571 258.667h-238.571v238.666h238.571z" fill="#d9195c"/><path d="m497.143 258.667h-238.572v238.666h238.572z" fill="#ee2178"/><path d="m735.714 258.667h-238.571v238.666h238.571z" fill="#ee2178"/><path d="m974.285 258.667h-238.571v238.666h238.571z" fill="#d9195c"/><path d="m1212.86 258.667h-238.574v238.666h238.574z" fill="#ee2178"/><path d="m1451.43 258.667h-238.57v238.666h238.57z" fill="#f7b0cf"/><path d="m1690 258.667h-238.57v238.666h238.57z" fill="#ad1d45"/><path d="m258.571 497.333h-238.571v238.667h238.571z" fill="#d62d75"/><path d="m497.143 497.333h-238.572v238.667h238.572z" fill="#d9195c"/><path d="m735.714 497.333h-238.571v238.667h238.571z" fill="#d9195c"/><path d="m974.285 497.333h-238.571v238.667h238.571z" fill="#ad1d45"/><path d="m1212.86 497.333h-238.574v238.667h238.574z" fill="#d9195c"/><path d="m1451.43 497.333h-238.57v238.667h238.57z" fill="#d62d75"/><path d="m1690 497.333h-238.57v238.667h238.57z" fill="#ad1d45"/><path d="m497.143 736h-238.572v238.667h238.572z" fill="#ad1d45"/><path d="m735.714 736h-238.571v238.667h238.571z" fill="#ee2178"/><path d="m974.285 736h-238.571v238.667h238.571z" fill="#d9195c"/><path d="m1212.86 736h-238.574v238.667h238.574z" fill="#ee2178"/><path d="m1451.43 736h-238.57v238.667h238.57z" fill="#d9195c"/><path d="m735.714 974.667h-238.571v238.663h238.571z" fill="#d9195c"/><path d="m974.285 974.667h-238.571v238.663h238.571z" fill="#d62d75"/><path d="m1212.86 974.667h-238.574v238.663h238.574z" fill="#d9195c"/><path d="m974.285 1213.33h-238.571v238.67h238.571z" fill="#ee2178"/></g></svg>